<?xml version="1.0" standalone="no"?>
<!DOCTYPE svg PUBLIC "-//W3C//DTD SVG 20010904//EN"
 "http://www.w3.org/TR/2001/REC-SVG-20010904/DTD/svg10.dtd">
<svg version="1.0" xmlns="http://www.w3.org/2000/svg"
 width="400.000000pt" height="400.000000pt" viewBox="0 0 400.000000 400.000000"
 preserveAspectRatio="xMidYMid meet">
<metadata>
Created by potrace 1.11, written by Peter Selinger 2001-2013
</metadata>
<g transform="translate(0.000000,400.000000) scale(0.100000,-0.100000)"
fill="#000000" stroke="none">
<path d="M0 2000 l0 -2000 2000 0 2000 0 0 2000 0 2000 -2000 0 -2000 0 0
-2000z m1054 774 c33 -104 312 -843 355 -937 17 -37 44 -88 61 -112 l31 -45
-155 0 -154 0 15 31 c10 20 13 44 9 69 -8 53 -301 855 -311 853 -8 -1 -41 -72
-141 -296 l-38 -87 -69 -21 c-38 -11 -76 -23 -83 -26 -28 -10 -25 -4 166 432
53 121 61 146 56 185 l-5 45 119 -3 118 -3 26 -85z m2041 4 c22 -68 119 -331
271 -733 55 -145 106 -260 134 -303 16 -25 30 -49 30 -54 0 -4 -68 -8 -151 -8
l-150 0 15 22 c28 40 23 76 -34 228 -17 47 -40 110 -51 140 -78 225 -205 562
-212 564 -6 1 -240 -510 -260 -568 -3 -9 -124 8 -135 19 -5 4 93 238 249 595
33 77 40 103 36 138 l-5 42 118 0 119 0 26 -82z m-817 48 c109 -29 198 -106
222 -191 18 -63 9 -170 -18 -226 -50 -103 -158 -171 -298 -188 -56 -7 -93 -7
-120 0 -46 13 -32 24 43 32 126 14 195 88 212 226 13 101 0 150 -54 200 -60
55 -124 73 -256 69 l-104 -3 -3 -485 c-2 -443 1 -531 23 -582 7 -17 -2 -18
-105 -18 -103 0 -112 1 -105 18 19 47 23 176 21 602 -2 410 -4 470 -19 504 -9
21 -17 42 -17 47 0 16 518 11 578 -5z m-1598 -674 c0 -4 -32 -79 -71 -167 -73
-165 -78 -190 -54 -262 l7 -23 -121 0 c-66 0 -121 2 -121 4 0 2 18 31 40 64
23 34 69 132 104 219 l64 158 48 5 c80 9 104 9 104 2z m1950 -204 c0 -7 -11
-37 -25 -66 -29 -62 -32 -110 -10 -152 l16 -30 -126 0 c-69 0 -125 2 -125 4 0
2 20 33 44 69 24 36 54 92 67 126 l24 61 67 0 c48 0 68 -4 68 -12z m-2240
-427 c3 -1 -3 -6 -12 -12 -15 -8 -18 -25 -18 -104 0 -79 3 -96 18 -104 19 -12
18 -12 -43 -13 -49 -1 -68 8 -41 18 23 9 24 192 1 200 -28 11 -7 20 42 18 26
-1 50 -3 53 -3z m305 -85 l65 -78 0 76 c0 64 -3 76 -17 76 -9 0 -13 3 -10 7 4
3 23 6 42 6 50 -2 52 -2 33 -14 -15 -8 -18 -25 -18 -114 0 -146 -11 -148 -110
-21 -36 46 -68 82 -71 80 -11 -6 0 -147 11 -154 7 -4 2 -9 -13 -12 -30 -6 -56
6 -38 16 7 5 11 43 11 102 0 75 -3 96 -15 100 -27 11 -6 21 29 15 29 -5 48
-21 101 -85z m451 81 c3 -3 1 -18 -4 -34 -10 -27 -11 -27 -17 -6 -12 38 -75
42 -89 6 -9 -21 8 -36 67 -57 52 -19 67 -48 51 -95 -12 -34 -75 -57 -127 -47
-34 6 -37 10 -37 41 0 19 5 35 10 35 6 0 10 -9 10 -20 0 -12 10 -25 25 -32 35
-16 75 3 75 36 0 19 -8 27 -37 36 -65 21 -83 37 -83 75 0 50 40 78 103 72 26
-2 50 -7 53 -10z m291 -1 c4 -3 -1 -6 -10 -6 -15 0 -17 -13 -17 -90 0 -86 1
-91 24 -101 35 -16 75 -3 86 27 6 14 10 54 10 89 0 50 -4 66 -17 74 -20 11
-17 13 27 13 44 0 47 -2 28 -13 -15 -8 -18 -25 -18 -93 0 -113 -14 -131 -99
-131 -85 0 -93 11 -93 119 0 60 -4 90 -13 100 -8 7 -12 15 -10 17 6 6 96 2
102 -5z m477 -6 c22 -18 20 -60 -5 -86 l-21 -23 22 -33 c13 -18 32 -43 43 -55
11 -13 17 -23 14 -24 -52 -8 -63 -2 -99 51 -20 30 -37 58 -37 63 -1 4 11 12
25 17 21 8 25 15 22 42 -2 28 -8 34 -30 36 l-28 3 0 -95 c0 -79 3 -97 17 -104
12 -7 3 -11 -36 -13 -52 -4 -77 5 -47 17 23 9 23 192 1 200 -31 12 -5 19 69
18 45 0 81 -6 90 -14z m381 -68 c15 -37 37 -87 51 -111 13 -24 24 -44 24 -45
0 -1 -90 2 -99 3 -2 1 2 7 8 15 22 27 -4 56 -49 56 -34 0 -40 -3 -46 -26 -4
-16 -2 -29 6 -34 7 -5 -2 -9 -24 -12 -38 -4 -58 5 -32 15 7 3 26 38 41 79 16
40 37 90 47 111 24 49 37 40 73 -51z m350 30 c22 -26 52 -60 67 -77 l27 -30 1
73 c0 41 -4 72 -10 72 -5 0 -10 4 -10 9 0 5 15 7 33 5 17 -1 37 -3 42 -4 6 0
2 -5 -7 -11 -15 -9 -18 -26 -18 -120 0 -136 -6 -138 -101 -24 -37 43 -71 81
-75 82 -12 4 -5 -129 7 -142 17 -17 9 -22 -28 -19 -21 2 -40 3 -43 4 -3 0 3 5
13 11 14 8 17 25 17 109 0 84 -3 100 -16 100 -8 0 -12 4 -9 10 14 22 71 -3
110 -48z m535 42 c11 -11 2 -54 -11 -54 -5 0 -9 7 -9 15 0 19 -47 38 -77 30
-58 -14 -81 -91 -48 -155 18 -34 49 -45 106 -37 51 7 48 -14 -3 -27 -49 -12
-104 0 -139 32 -61 56 -43 163 34 198 34 15 131 14 147 -2z m348 -16 c2 -16
-1 -28 -7 -28 -6 0 -11 7 -11 15 0 11 -11 15 -40 15 l-40 0 0 -40 c0 -37 2
-40 26 -40 15 0 33 8 40 18 12 15 13 12 14 -25 0 -24 -4 -43 -10 -43 -5 0 -10
7 -10 15 0 10 -10 15 -30 15 -29 0 -30 -2 -30 -45 l0 -45 39 0 c31 0 41 4 46
21 9 28 26 10 19 -19 -7 -23 -13 -25 -109 -24 -71 1 -70 1 -57 14 19 19 16
197 -3 204 -31 12 -4 19 77 19 l83 0 3 -27z"/>
<path d="M2217 1423 c-18 -34 -14 -43 20 -43 21 0 23 4 17 23 -14 48 -21 52
-37 20z"/>
</g>
</svg>
